<mxfile host="app.diagrams.net" modified="2024-06-04T15:27:07.079Z" agent="Mozilla/5.0 (Windows NT 10.0; Win64; x64) AppleWebKit/537.36 (KHTML, like Gecko) Chrome/125.0.0.0 Safari/537.36" version="24.0.5" etag="XcMzETr5kGWbnpdB5t0G" type="github">
  <diagram name="Trang-1" id="tHbxLT90zYZ1R2hBvUvy">
    <mxGraphModel>
      <root>
        <mxCell id="0" />
        <mxCell id="1" parent="0" />
      </root>
    </mxGraphModel>
  </diagram>
</mxfile>
